HIERARCHY
ROOT Hips
{
  OFFSET 48.4141 93.7172 13.8819
  CHANNELS 6 Xposition Yposition Zposition Zrotation Xrotation Yrotation
  JOINT spine
  {
    OFFSET 0 7.80059 0.448573
    CHANNELS 3 Zrotation Xrotation Yrotation
    JOINT spine1
    {
      OFFSET 0 10.1364 0
      CHANNELS 3 Zrotation Xrotation Yrotation
      JOINT spine2
      {
        OFFSET 0 9.71251 0
        CHANNELS 3 Zrotation Xrotation Yrotation
        JOINT Neck
        {
          OFFSET 0 24.9361 1.18887
          CHANNELS 3 Zrotation Xrotation Yrotation
          JOINT Head
          {
            OFFSET 0 7.53384 0
            CHANNELS 3 Zrotation Xrotation Yrotation
            End Site
            {
              OFFSET 0 18.2361 -6.01402
            }
          }
        }
        JOINT RightShoulder
        {
          OFFSET -4.08965 10.4888 -0.569457
          CHANNELS 3 Zrotation Xrotation Yrotation
          JOINT RightArm
          {
            OFFSET 0 13.757 0
            CHANNELS 3 Zrotation Xrotation Yrotation
            JOINT RightArmRoll
            {
              OFFSET 0 6.94478 0
              CHANNELS 3 Zrotation Xrotation Yrotation
              JOINT RightForeArm
              {
                OFFSET 0 20.2277 0
                CHANNELS 3 Zrotation Xrotation Yrotation
                JOINT RightForeArmRoll
                {
                  OFFSET 0 7.79312 0
                  CHANNELS 3 Zrotation Xrotation Yrotation
                  JOINT RightHand
                  {
                    OFFSET 0 15.6391 0
                    CHANNELS 3 Zrotation Xrotation Yrotation
                    End Site
                    {
                      OFFSET 0 0 0
                    }
                  }
                }
              }
            }
          }
        }
        JOINT LeftShoulder
        {
          OFFSET 4.08965 10.4888 -0.569457
          CHANNELS 3 Zrotation Xrotation Yrotation
          JOINT LeftArm
          {
            OFFSET 0 13.757 0
            CHANNELS 3 Zrotation Xrotation Yrotation
            JOINT LeftArmRoll
            {
              OFFSET 0 6.94478 0
              CHANNELS 3 Zrotation Xrotation Yrotation
              JOINT LeftForeArm
              {
                OFFSET 0 20.2277 0
                CHANNELS 3 Zrotation Xrotation Yrotation
                JOINT LeftForeArmRoll
                {
                  OFFSET 0 7.79312 0
                  CHANNELS 3 Zrotation Xrotation Yrotation
                  JOINT LeftHand
                  {
                    OFFSET 0 15.6391 0
                    CHANNELS 3 Zrotation Xrotation Yrotation
                    End Site
                    {
                      OFFSET 0 0 0
                    }
                  }
                }
              }
            }
          }
        }
      }
    }
  }
  JOINT RightUpLeg
  {
    OFFSET -6.91415 -1.26788 -1.06358
    CHANNELS 3 Zrotation Xrotation Yrotation
    JOINT RightUpLegRoll
    {
      OFFSET 0 18.3378 0
      CHANNELS 3 Zrotation Xrotation Yrotation
      JOINT RightLeg
      {
        OFFSET 0 -22.7085 0
        CHANNELS 3 Zrotation Xrotation Yrotation
        JOINT RightLegRoll
        {
          OFFSET 0 22.7828 0
          CHANNELS 3 Zrotation Xrotation Yrotation
          JOINT RightFoot
          {
            OFFSET 0 18.9629 0
            CHANNELS 3 Zrotation Xrotation Yrotation
            JOINT RightToeBase
            {
              OFFSET 0 15.852 0
              CHANNELS 3 Zrotation Xrotation Yrotation
              End Site
              {
                OFFSET 0.00671906 7.67701 -0.884893
              }
            }
          }
        }
      }
    }
  }
  JOINT LeftUpLeg
  {
    OFFSET 6.91415 -1.26788 -1.06358
    CHANNELS 3 Zrotation Xrotation Yrotation
    JOINT LeftUpLegRoll
    {
      OFFSET 0 18.3379 0
      CHANNELS 3 Zrotation Xrotation Yrotation
      JOINT LeftLeg
      {
        OFFSET 0 22.7084 0
        CHANNELS 3 Zrotation Xrotation Yrotation
        JOINT LeftLegRoll
        {
          OFFSET 0 22.9934 0
          CHANNELS 3 Zrotation Xrotation Yrotation
          JOINT LeftFoot
          {
            OFFSET 0 18.7522 0
            CHANNELS 3 Zrotation Xrotation Yrotation
            JOINT LeftToeBase
            {
              OFFSET 0 15.852 0
              CHANNELS 3 Zrotation Xrotation Yrotation
              End Site
              {
                OFFSET -0.030112 7.67701 -0.884892
              }
            }
          }
        }
      }
    }
  }
}
MOTION
Frames: 9
Frame Time: 0.00208333
58.7656 116.149 31.8985 2.57762 -2.42522 -0.696493 -0.243388 0.177229 0.350665 -0.492538 4.35567 0.733919 -0.502177 6.00066 0.743078 -24.9567 9.49237 -1.7131 24.7182 -11.6043 -2.64711 58.0869 -6.74153 -4.15125 100.854 18.236 14.5326 2.46351e-006 1.72146e-006 2.10492e-006 7.8852 57.6132 -6.68993 -8.7205e-006 -4.40922e-006 -2.99999 8.02885 -4.95141 0.697671 -67.8669 -4.91108 3.59806 -93.7792 2.71281 -22.1712 -3.14271e-006 2.99925e-006 -1.79532e-006 -0.994107 45.05 1.51284 5.53409e-006 1.62777e-006 3 -8.03001 -4.95145 -0.697665 175.562 27.1401 3.81897 180 7.01309e-015 178.159 -138.635 80.4064 141.463 1.38295e-006 -7.81174e-006 1.18265 -17.078 65.7678 17.853 8.13649 25.2326 -3.48773 -178.065 21.0512 -9.09241 4.54188e-006 -4.67732e-006 -1.67974 -9.38178 -70.0615 -4.43771 4.60273e-006 1.22542e-006 -1.1728 17.6944 66.7242 -18.532 -8.13649 25.2326 3.48774 
58.7987 116.224 31.8544 2.57177 -2.37203 -0.738151 -0.23397 0.16903 0.343036 -0.473485 4.33936 0.717371 -0.482892 5.98436 0.726188 -25.2156 9.69109 -1.60699 24.9182 -11.8141 -2.55898 57.8211 -6.70409 -4.11597 101.315 18.4357 14.4084 2.46351e-006 1.72146e-006 2.10492e-006 7.83526 56.9588 -6.59236 -8.7205e-006 -4.40922e-006 -2.99999 8.02885 -4.95141 0.697671 -68.0319 -4.85823 3.57865 -93.6625 2.82952 -21.9568 -3.14271e-006 2.99925e-006 -1.79532e-006 -1.13308 44.5773 1.5879 5.53409e-006 1.62777e-006 3 -8.03001 -4.95145 -0.697665 175.597 27.6192 3.92503 180 7.01297e-015 178.128 -133.001 81.1544 135.919 1.38295e-006 -7.81175e-006 1.21886 -17.0647 65.7205 17.8196 8.13649 25.2326 -3.48773 -178.064 21.5762 -9.3949 4.54188e-006 -4.67732e-006 -1.71687 -8.74781 -71.3904 -4.0284 4.60273e-006 1.22542e-006 -1.2229 17.6252 66.588 -18.4303 -8.13649 25.2326 3.48774 
58.7824 116.307 31.7927 2.56603 -2.31896 -0.777706 -0.225404 0.160015 0.334561 -0.45613 4.32142 0.699242 -0.465287 5.96642 0.707742 -25.45 9.8872 -1.50279 25.091 -12.0208 -2.47258 57.5662 -6.6672 -4.08105 101.762 18.6353 14.2816 2.46351e-006 1.72146e-006 2.10492e-006 7.78759 56.2907 -6.49683 -8.7205e-006 -4.40922e-006 -2.99999 8.02885 -4.95141 0.697671 -68.1781 -4.81965 3.56667 -93.5619 2.95483 -21.7348 -3.14271e-006 2.99925e-006 -1.79532e-006 -1.27351 44.1019 1.6616 5.53409e-006 1.62777e-006 3 -8.03001 -4.95145 -0.697665 175.629 28.0869 4.03507 180 7.01284e-015 178.097 -126.62 81.7781 129.625 1.38295e-006 -7.81175e-006 1.2551 -17.05 65.6695 17.7838 8.13649 25.2326 -3.48773 -178.07 22.1019 -9.69117 4.54188e-006 -4.67733e-006 -1.75514 -7.98294 -72.7115 -3.50179 4.60273e-006 1.22542e-006 -1.27421 17.5581 66.4497 -18.328 -8.13649 25.2326 3.48774 
58.8382 116.432 31.7709 2.56 -2.2655 -0.814968 -0.217627 0.150436 0.325452 -0.440351 4.30234 0.679949 -0.449248 5.94735 0.688158 -25.6598 10.0779 -1.40162 25.2377 -12.2223 -2.38866 57.3251 -6.63116 -4.0469 102.19 18.8338 14.152 2.46351e-006 1.72146e-006 2.10492e-006 7.74349 55.6146 -6.40452 -8.7205e-006 -4.40922e-006 -2.99999 8.02885 -4.95141 0.697671 -68.3073 -4.79373 3.56119 -93.4762 3.08907 -21.5068 -3.14271e-006 2.99925e-006 -1.79532e-006 -1.41411 43.6248 1.73341 5.53409e-006 1.62777e-006 3 -8.03001 -4.95145 -0.697665 175.659 28.5436 4.14837 180 7.01271e-015 178.065 -119.566 82.2649 122.659 1.38295e-006 -7.81176e-006 1.29114 -17.0341 65.6155 17.7461 8.13649 25.2326 -3.48773 -178.08 22.6266 -9.98005 4.54188e-006 -4.67733e-006 -1.79414 -7.07236 -74.0182 -2.84118 4.60273e-006 1.22542e-006 -1.32624 17.4933 66.3102 -18.226 -8.13649 25.2326 3.48774 
58.8139 116.455 31.6925 2.55328 -2.2111 -0.84975 -0.210576 0.140541 0.315923 -0.426025 4.28263 0.65991 -0.434655 5.92765 0.667852 -25.8452 10.2602 -1.30457 25.3593 -12.4167 -2.30798 57.1007 -6.59625 -4.01392 102.598 19.0306 14.0196 2.46351e-006 1.72146e-006 2.10492e-006 7.70409 54.9367 -6.31648 -8.7205e-006 -4.40922e-006 -2.99999 8.02885 -4.95141 0.697671 -68.4215 -4.77881 3.56131 -93.4041 3.23257 -21.2742 -3.14271e-006 2.99925e-006 -1.79532e-006 -1.55364 43.1467 1.80286 5.53409e-006 1.62777e-006 3 -8.03001 -4.95145 -0.697665 175.688 28.99 4.26425 180 3.2442e-014 178.034 -112.016 82.6071 115.193 1.38295e-006 -7.81176e-006 1.32674 -17.0174 65.5594 17.7072 8.13649 25.2326 -3.48773 -178.093 23.1482 -10.2603 4.54188e-006 -4.67733e-006 -1.83349 -5.99711 -75.3033 -2.02549 4.60273e-006 1.22542e-006 -1.37852 17.4311 66.1707 -18.125 -8.13649 25.2326 3.48774 
58.8299 116.568 31.6456 2.54549 -2.15524 -0.881864 -0.204185 0.130582 0.306185 -0.413029 4.26279 0.639544 -0.42139 5.90781 0.64724 -26.0061 10.4314 -1.21276 25.4567 -12.6017 -2.23131 56.8959 -6.56279 -3.9825 102.982 19.2247 13.8844 2.46351e-006 1.72146e-006 2.10492e-006 7.67038 54.2629 -6.23358 -8.7205e-006 -4.40922e-006 -2.99999 8.02885 -4.95141 0.697671 -68.5225 -4.77327 3.56611 -93.3443 3.38564 -21.0386 -3.14271e-006 2.99925e-006 -1.79532e-006 -1.69089 42.6687 1.86946 5.53409e-006 1.62777e-006 3 -8.03001 -4.95145 -0.697665 175.716 29.4264 4.38197 180 7.01245e-015 178.003 -104.24 82.8037 107.499 1.38295e-006 -7.81177e-006 1.36166 -17 65.5021 17.6676 8.13649 25.2326 -3.48773 -178.109 23.6648 -10.5307 4.54188e-006 -4.67734e-006 -1.87279 -4.73311 -76.5597 -1.02827 4.60273e-006 1.22543e-006 -1.43056 17.3715 66.0321 -18.026 -8.13649 25.2326 3.48774 
58.8353 116.621 31.5851 2.53622 -2.09738 -0.91112 -0.198391 0.120809 0.296452 -0.401238 4.24331 0.619269 -0.409333 5.88833 0.62674 -26.1425 10.5886 -1.12728 25.5309 -12.7755 -2.15939 56.7137 -6.53108 -3.95305 103.338 19.4154 13.7463 2.46351e-006 1.72146e-006 2.10492e-006 7.64322 53.5993 -6.15657 -8.7205e-006 -4.40922e-006 -2.99999 8.02885 -4.95141 0.697671 -68.6122 -4.77546 3.57467 -93.2956 3.5486 -20.8015 -3.14271e-006 2.99925e-006 -1.79532e-006 -1.82465 42.1916 1.93276 5.53409e-006 1.62777e-006 3 -8.03001 -4.95145 -0.697665 175.745 29.8535 4.50082 180 7.01232e-015 177.972 -96.5559 82.8631 99.8946 1.38295e-006 -7.81177e-006 1.39567 -16.9823 65.4444 17.628 8.13649 25.2326 -3.48773 -178.125 24.1747 -10.7898 4.54188e-006 -4.67734e-006 -1.91164 -3.24982 -77.78 0.183558 4.60273e-006 1.22543e-006 -1.48189 17.3146 65.8956 -17.9294 -8.13649 25.2326 3.48774 
58.8599 116.751 31.583 2.52507 -2.037 -0.937332 -0.193129 0.11147 0.286937 -0.390526 4.2247 0.599501 -0.398363 5.86972 0.606766 -26.2543 10.7289 -1.04928 25.5828 -12.9358 -2.09302 56.557 -6.5014 -3.92597 103.663 19.6019 13.6053 2.46351e-006 1.72146e-006 2.10492e-006 7.62337 52.952 -6.0861 -8.7205e-006 -4.40922e-006 -2.99999 8.02885 -4.95141 0.697671 -68.6925 -4.78377 3.58609 -93.2566 3.72176 -20.5643 -3.14271e-006 2.99925e-006 -1.79532e-006 -1.95377 41.7162 1.99231 5.53409e-006 1.62777e-006 3 -8.03001 -4.95145 -0.697665 175.774 30.2719 4.62005 180 7.01219e-015 177.943 -89.2602 82.8021 92.6749 1.38295e-006 -7.81177e-006 1.42854 -16.9645 65.3871 17.5889 8.13649 25.2326 -3.48773 -178.141 24.6759 -11.0363 4.54188e-006 -4.67733e-006 -1.94965 -1.50883 -78.9566 1.65118 4.60273e-006 1.22542e-006 -1.53202 17.2606 65.7621 -17.8361 -8.13649 25.2326 3.48774 
58.8509 116.751 31.5042 2.51165 -1.97357 -0.960311 -0.188333 0.102817 0.277851 -0.380764 4.20745 0.580659 -0.388357 5.85248 0.587735 -26.3414 10.8495 -0.979851 25.6134 -13.0807 -2.03294 56.4287 -6.47408 -3.90165 103.954 19.7832 13.4614 2.46351e-006 1.72146e-006 2.10492e-006 7.61149 52.3269 -6.02272 -8.7205e-006 -4.40922e-006 -2.99999 8.02885 -4.95141 0.697671 -68.7653 -4.79654 3.59946 -93.2261 3.90545 -20.3287 -3.14271e-006 2.99925e-006 -1.79532e-006 -2.0771 41.2436 2.04769 5.53409e-006 1.62777e-006 3 -8.03001 -4.95145 -0.697665 175.805 30.682 4.73892 180 7.01207e-015 177.916 -82.5695 82.6435 86.056 1.38295e-006 -7.81177e-006 1.46002 -16.9469 65.3311 17.5509 8.13649 25.2326 -3.48773 -178.156 25.1666 -11.2688 4.54188e-006 -4.67733e-006 -1.98644 0.53766 -80.0814 3.4254 4.60273e-006 1.22542e-006 -1.58049 17.2094 65.6328 -17.7466 -8.13649 25.2326 3.48774 
